<?xml version="1.0" standalone="no"?>
<!DOCTYPE svg PUBLIC "-//W3C//DTD SVG 20010904//EN"
 "http://www.w3.org/TR/2001/REC-SVG-20010904/DTD/svg10.dtd">
<svg version="1.0" xmlns="http://www.w3.org/2000/svg"
 width="1024.000000pt" height="1024.000000pt" viewBox="0 0 1024.000000 1024.000000"
 preserveAspectRatio="xMidYMid meet">

<g transform="translate(0.000000,1024.000000) scale(0.100000,-0.100000)"
fill="#000000" stroke="none">
<path d="M6515 7567 c79 -43 191 -156 235 -237 19 -36 45 -99 57 -140 18 -59
22 -65 17 -30 -3 25 -13 60 -20 79 -8 19 -13 36 -10 38 2 2 11 -14 20 -37 9
-22 21 -40 28 -40 9 0 8 -3 -2 -10 -13 -8 -12 -10 3 -10 9 0 17 6 17 13 0 9 2
9 8 -1 6 -8 13 1 21 30 30 102 132 238 224 302 63 43 74 57 25 29 -44 -25
-172 -153 -193 -193 -13 -26 -19 -30 -27 -19 -8 11 -9 10 -4 -4 3 -10 -3 -34
-14 -55 -11 -20 -20 -31 -20 -24 0 7 7 23 16 37 12 18 13 28 4 44 -9 18 -8 21
10 21 11 0 20 5 20 10 0 6 -4 10 -10 10 -6 0 -9 3 -9 8 5 28 -3 34 -17 12 -8
-14 -14 -18 -13 -10 3 38 0 43 -18 29 -15 -12 -16 -12 -10 3 4 12 2 15 -8 11
-8 -3 -12 -10 -8 -16 3 -6 1 -7 -5 -3 -6 4 -9 13 -5 21 3 10 -1 15 -12 15 -9
0 -13 -5 -9 -11 4 -7 1 -10 -7 -7 -8 3 -13 13 -12 22 0 10 -2 15 -5 12 -3 -3
-12 0 -21 7 -14 11 -15 10 -1 -7 14 -18 13 -19 -15 -12 -16 4 -34 12 -40 18
-7 8 -6 9 3 4 6 -4 12 -2 12 4 0 7 -6 10 -12 8 -7 -3 -13 -11 -13 -18 0 -21
-22 -23 -37 -2 -26 36 -169 133 -195 132 -4 0 19 -15 52 -33z m192 -132 c0 -8
-4 -12 -9 -9 -4 3 -8 9 -8 15 0 5 4 9 8 9 5 0 9 -7 9 -15z m28 -29 c0 -18 -3
-22 -13 -14 -9 8 -9 14 -1 24 15 18 14 18 14 -10z m43 -91 c-3 -3 -9 2 -12 12
-6 14 -5 15 5 6 7 -7 10 -15 7 -18z"/>
<path d="M6861 7163 c0 -6 -4 -20 -7 -30 -5 -14 -4 -15 5 -7 7 7 11 20 8 30
-3 11 -5 14 -6 7z"/>
<path d="M3850 5996 c0 -2 8 -10 18 -17 15 -13 16 -12 3 4 -13 16 -21 21 -21
13z"/>
<path d="M5420 5886 c0 -2 8 -10 18 -17 15 -13 16 -12 3 4 -13 16 -21 21 -21
13z"/>
<path d="M3995 5860 c10 -11 20 -20 23 -20 3 0 -3 9 -13 20 -10 11 -20 20 -23
20 -3 0 3 -9 13 -20z"/>
<path d="M4050 5816 c0 -2 8 -10 18 -17 15 -13 16 -12 3 4 -13 16 -21 21 -21
13z"/>
<path d="M4293 5796 c-6 -8 -9 -17 -5 -21 4 -5 -3 -5 -15 -2 -13 3 -23 1 -23
-4 0 -5 -5 -9 -11 -9 -6 0 -9 9 -6 20 3 11 1 18 -4 14 -5 -3 -9 -13 -9 -23 0
-14 -7 -17 -42 -14 -40 2 -42 1 -24 -12 27 -20 7 -19 -24 1 -14 9 -2 -7 27
-35 28 -28 56 -50 61 -49 6 2 11 -1 12 -7 5 -26 23 -46 36 -41 8 3 13 2 10 -3
-3 -4 99 -109 227 -231 555 -535 926 -895 1462 -1420 382 -374 441 -430 448
-423 4 3 7 1 7 -5 0 -7 11 -12 25 -12 14 0 25 -6 25 -12 0 -9 4 -8 10 2 6 10
10 11 10 3 0 -7 5 -13 10 -13 6 0 10 7 10 16 0 8 4 13 8 10 17 -10 62 -14 67
-6 3 5 21 7 41 5 25 -4 36 -1 41 10 5 14 8 14 29 0 23 -15 24 -15 24 15 0 20
5 30 15 30 8 0 15 5 15 10 0 6 5 10 11 10 7 0 5 -11 -5 -27 -13 -21 -10 -19
11 6 15 19 33 48 38 65 6 17 16 30 23 28 26 -5 164 240 196 347 11 39 16 91
15 185 -1 137 -14 337 -19 299 -4 -34 -5 -37 -12 -49 -4 -5 -3 -28 2 -50 15
-64 10 -72 -11 -18 -17 44 -42 72 -183 200 -227 208 -438 406 -665 626 -106
104 -202 193 -213 199 -11 6 6 -15 37 -47 44 -43 54 -59 43 -66 -9 -6 -5 -7
11 -3 18 6 22 4 16 -6 -5 -8 -5 -11 0 -7 4 4 14 3 22 -3 15 -13 18 -33 3 -24
-5 3 -10 1 -10 -4 0 -6 4 -11 9 -11 6 0 9 -9 8 -19 -1 -15 -4 -17 -14 -10 -7
6 -18 7 -25 3 -10 -6 -11 -5 -1 7 10 12 8 15 -8 15 -10 0 -19 -4 -19 -8 0 -4
-4 -8 -10 -8 -5 0 -7 7 -4 15 5 11 0 12 -25 5 -20 -5 -31 -5 -31 1 0 6 -4 7
-10 4 -5 -3 -10 -2 -10 4 0 5 6 12 13 14 7 4 6 6 -4 6 -9 1 -20 8 -23 17 -3 9
-13 14 -20 11 -8 -3 -16 -1 -18 5 -3 7 -12 7 -28 -2 -23 -12 -24 -12 -11 4 12
15 12 17 0 14 -8 -2 -13 3 -11 10 1 8 -2 11 -7 7 -6 -3 -16 3 -22 14 -7 10
-19 17 -27 14 -16 -7 -92 17 -92 29 0 4 -9 8 -19 8 -11 0 -27 10 -35 22 -15
21 -16 21 -16 3 -1 -18 -1 -19 -11 -2 -6 10 -22 17 -39 17 -16 0 -32 5 -35 11
-4 6 -14 8 -22 4 -13 -4 -13 -3 -4 9 9 11 7 15 -8 19 -11 2 -25 0 -32 -7 -9
-8 -11 -6 -6 11 3 15 1 20 -9 16 -8 -3 -11 -9 -8 -14 13 -22 -13 -6 -35 21
-26 33 -43 39 -35 13 5 -16 4 -16 -10 1 -9 12 -21 16 -32 12 -17 -6 -17 -6 -1
12 14 15 14 19 2 19 -8 0 -12 -4 -10 -8 3 -4 -2 -9 -10 -13 -9 -3 -15 0 -15
10 0 10 -7 13 -25 8 -19 -5 -25 -2 -25 10 0 10 -6 13 -15 10 -8 -4 -15 -1 -15
6 0 6 -4 8 -10 5 -5 -3 -10 -1 -10 5 0 6 -5 8 -12 4 -6 -4 -18 2 -26 12 -14
19 -15 19 -8 0 5 -15 4 -17 -8 -7 -11 9 -15 9 -19 -1 -4 -8 -6 -7 -6 4 -1 21
-37 42 -57 34 -8 -3 -14 0 -14 6 0 6 -3 8 -7 5 -3 -4 -12 1 -19 11 -12 15 -15
15 -24 2 -6 -10 -10 -11 -10 -2 0 6 -12 12 -26 12 -17 0 -24 4 -21 13 3 8 -4
13 -19 13 -17 0 -23 -4 -19 -14 4 -10 0 -12 -11 -8 -8 3 -17 6 -20 6 -2 0 -1
7 3 16 4 12 0 15 -23 13 -16 -1 -40 -1 -54 0 -20 1 -22 3 -10 11 13 8 12 10
-4 10 -11 0 -16 5 -13 13 3 8 -1 14 -8 14 -8 0 -11 -7 -7 -16 5 -14 3 -14 -10
-3 -10 8 -19 9 -22 3 -3 -5 -1 -11 6 -13 7 -3 5 -7 -6 -11 -10 -4 -15 -3 -11
3 4 6 -4 14 -17 19 -13 6 -17 10 -9 10 8 1 12 4 9 7 -4 3 -16 1 -27 -6 -17 -9
-21 -8 -21 5 0 8 -6 14 -12 13 -7 -2 -12 2 -11 9 1 6 -4 14 -12 17 -8 3 -15 1
-15 -5 0 -7 -12 -9 -30 -7 -24 4 -27 2 -18 -9 8 -11 7 -12 -6 -7 -9 3 -16 13
-16 21 0 12 -2 12 -15 -1 -13 -13 -19 -13 -42 -1 -16 9 -31 11 -36 6 -5 -5
-16 -7 -25 -4 -10 4 -13 2 -8 -5 4 -7 3 -12 -3 -12 -5 0 -14 7 -19 17 -9 14
-10 14 -17 -6 -6 -21 -7 -21 -23 -2 -14 17 -19 18 -29 7z m22 -16 c3 -5 1 -10
-4 -10 -6 0 -11 5 -11 10 0 6 2 10 4 10 3 0 8 -4 11 -10z m-118 -77 c0 -9 -4
-10 -14 -2 -7 6 -13 12 -13 14 0 1 6 2 13 2 8 0 14 -6 14 -14z m1478 -342 c-6
-5 -25 10 -25 20 0 5 6 4 14 -3 8 -7 12 -15 11 -17z m105 -15 c0 -2 -7 -7 -16
-10 -8 -3 -12 -2 -9 4 6 10 25 14 25 6z"/>
<path d="M4978 5693 c7 -3 16 -2 19 1 4 3 -2 6 -13 5 -11 0 -14 -3 -6 -6z"/>
<path d="M5840 5495 c13 -14 26 -25 28 -25 3 0 -5 11 -18 25 -13 14 -26 25
-28 25 -3 0 5 -11 18 -25z"/>
<path d="M6235 2862 c-3 -3 -5 -96 -5 -207 l0 -202 30 5 30 4 -2 201 c-3 200
-3 200 -26 202 -12 1 -24 -1 -27 -3z"/>
<path d="M3215 2660 l0 -200 28 0 27 0 0 172 0 173 173 -173 c139 -139 177
-172 200 -172 l27 0 0 200 0 200 -27 0 -28 0 3 -167 3 -168 -168 168 c-153
152 -171 167 -203 167 l-35 0 0 -200z"/>
<path d="M3900 2660 l0 -200 205 0 205 0 0 25 0 25 -175 0 -175 0 0 70 0 70
150 0 c143 0 150 1 150 20 0 19 -7 20 -149 20 l-149 0 -4 60 -3 60 178 0 177
0 0 25 0 25 -205 0 -205 0 0 -200z"/>
<path d="M4603 2763 l99 -96 -101 -101 c-56 -56 -101 -104 -101 -107 0 -3 15
-4 33 -1 24 3 54 25 120 90 l87 87 88 -88 c81 -80 90 -87 127 -87 l40 1 -109
106 -109 106 99 93 99 94 -41 0 c-39 0 -46 -5 -119 -81 l-77 -81 -82 81 c-71
71 -86 81 -116 81 l-35 -1 98 -96z"/>
<path d="M5357 2838 c-8 -13 -59 -103 -115 -200 l-100 -178 31 0 c28 1 36 8
62 53 17 29 33 51 38 50 4 -2 67 -3 140 -3 l134 0 23 -49 c19 -43 27 -50 56
-53 19 -2 34 -2 34 0 0 2 -50 94 -112 203 -110 196 -112 199 -145 199 -23 0
-37 -7 -46 -22z m102 -122 c28 -51 51 -99 51 -105 0 -7 -35 -11 -110 -11 -60
0 -110 2 -110 5 0 12 105 205 112 205 4 0 29 -42 57 -94z"/>
<path d="M6674 2758 c-31 -57 -83 -148 -115 -203 -31 -55 -56 -101 -55 -102 0
-1 16 2 34 5 26 6 39 17 60 55 l27 49 140 0 140 -1 24 -49 c21 -43 29 -51 58
-54 18 -2 33 -2 33 2 0 3 -49 93 -108 200 -108 193 -109 195 -144 198 l-36 3
-58 -103z m166 -78 l40 -80 -115 0 c-63 0 -115 1 -115 3 0 2 25 52 56 111 l56
108 19 -32 c11 -17 37 -67 59 -110z"/>
</g>
</svg>
